<svg xmlns="http://www.w3.org/2000/svg" fill="none" viewBox="0 0 40 41" height="41" width="40">
<path fill="black" d="M19.9997 0.56543C8.95401 0.56543 0 9.51928 0 20.5654C0 31.6116 8.95401 40.5654 19.9997 40.5654C31.0453 40.5654 40 31.6109 40 20.5654C40 9.51996 31.0453 0.56543 19.9997 0.56543ZM19.9997 36.8773C11.0049 36.8773 3.68754 29.56 3.68754 20.5654C3.68754 11.5708 11.0049 4.25359 19.9997 4.25359C28.9944 4.25359 36.3118 11.5708 36.3118 20.5654C36.3118 29.56 28.9944 36.8773 19.9997 36.8773Z"></path>
<path fill="black" d="M27.8378 17.3683C27.4261 16.4243 26.8489 15.6023 26.1066 14.9017C25.3644 14.2011 24.4971 13.6626 23.5048 13.2869C22.5125 12.9105 21.4282 12.7227 20.2527 12.7227H19.9019V16.4792H20.7901C21.5789 16.4792 22.2711 16.6393 22.866 16.9601C23.4609 17.2809 23.9246 17.7454 24.2565 18.3551C24.5884 18.9648 24.7547 19.6837 24.7547 20.5132C24.7547 21.3426 24.5918 22.0812 24.266 22.6902C23.9401 23.2999 23.4798 23.7679 22.8849 24.0948C22.2901 24.4217 21.5918 24.5851 20.7901 24.5851H19.9019V28.3417H20.2966C21.458 28.3417 22.5348 28.1504 23.5271 27.7666C24.5194 27.3834 25.3827 26.8408 26.1181 26.1402C26.8529 25.4396 27.4261 24.6136 27.8378 23.6627C28.2495 22.7112 28.455 21.6682 28.455 20.5322C28.455 19.3962 28.2488 18.3124 27.8378 17.3683Z"></path>
<path fill="black" d="M17.734 24.584H13.9897V28.3406H17.734V24.584Z"></path>
<path fill="black" d="M17.734 18.6533H13.9897V22.4099H17.734V18.6533Z"></path>
<path fill="black" d="M19.9978 12.7217H13.9897V16.4782H19.9978V12.7217Z"></path>
</svg>
