<svg xmlns="http://www.w3.org/2000/svg" fill="none" viewBox="0 0 201 377" height="377" width="201">
<g clip-path="url(#clip0_1566_28768)">
<path fill="#0000FE" d="M171.592 205.828L121.14 155.569L100.492 135L79.8398 155.574L29.3983 205.823C-9.80282 244.875 -9.79772 308.423 29.4034 347.47C68.6096 386.527 132.396 386.527 171.592 347.475C210.798 308.418 210.798 244.875 171.592 205.818V205.828ZM157.297 333.24C125.925 364.493 75.0648 364.493 43.6927 333.24C12.3206 301.987 12.3206 251.321 43.6927 220.068L90.0231 173.914L100.497 163.48L110.967 173.909L157.297 220.063C188.669 251.316 188.669 301.982 157.297 333.235V333.24Z"></path>
<path fill="#0000FE" d="M164.84 270.328L164.462 266.146H108.873V286.257H143.713C141.849 294.061 137.896 301.112 132.11 306.876C123.852 315.103 112.851 319.631 101.141 319.631C89.4255 319.631 78.4251 315.098 70.1671 306.871C53.0894 289.859 53.0894 262.172 70.1671 245.16L80.1512 235.214V250.624L108.878 222.012L135.393 248.426L149.632 234.196L108.883 193.598L87.8883 214.513L80.1512 206.805L55.9085 230.956C30.9661 255.803 30.9661 296.228 55.9085 321.076C68.3797 333.499 84.7577 339.711 101.141 339.711C117.519 339.711 133.907 333.499 146.378 321.076C156.868 310.626 163.42 296.778 164.82 282.095C165.198 278.198 165.208 274.235 164.85 270.318L164.84 270.328Z"></path>
<path fill="#0000FE" d="M155.247 0H45.7534C97.1244 0 98.0334 95.5588 98.0334 114.683C98.0334 137.622 75.6394 160.002 75.6394 160.002L100.5 135.231L125.361 160.002C125.361 160.002 102.967 137.622 102.967 114.683C102.967 95.5537 103.876 0 155.247 0Z"></path>
</g>
<defs>
<clipPath id="clip0_1566_28768">
<rect fill="white" height="377" width="201"></rect>
</clipPath>
</defs>
</svg>
